PathFileType	4	(X/Y/Z)	pose_F01_0-95.trc
DataRate	CameraRate	NumFrames	NumMarkers	Units	OrigDataRate	OrigDataStartFrame	OrigNumFrames
30	30	8	21	m	30	11	95
Frame#	Time	CHip			RHip			RKnee			RAnkle			RBigToe			RSmallToe			RHeel			LHip			LKnee			LAnkle			LBigToe			LSmallToe			LHeel			Neck			Nose			RShoulder			RElbow			RWrist			LShoulder			LElbow			LWrist			
		X1	Y1	Z1	X2	Y2	Z2	X3	Y3	Z3	X4	Y4	Z4	X5	Y5	Z5	X6	Y6	Z6	X7	Y7	Z7	X8	Y8	Z8	X9	Y9	Z9	X10	Y10	Z10	X11	Y11	Z11	X12	Y12	Z12	X13	Y13	Z13	X14	Y14	Z14	X15	Y15	Z15	X16	Y16	Z16	X17	Y17	Z17	X18	Y18	Z18	X19	Y19	Z19	X20	Y20	Z20	X21	Y21	Z21	
11	0.36666666666666664	-0.15980495325971333	1.8719422047626004	-0.4953799091309658	-0.1712735170805257	1.8683748981938821	-0.44172459462417935	-0.16165098369932726	1.728092155524082	-0.4103883527215857													-0.1462909244258361	1.8738609628926546	-0.5542757747135975	-0.13225881529349257	1.7256343361056266	-0.5336099077667554	-0.12910694817746926	1.588760274398863	-0.5154307374883641	-0.1637285835796215	1.5560279800971966	-0.5486551788111055	-0.14736281067870682	1.5605288971107079	-0.5662294612005896	-0.12141230023702299	1.577774792556334	-0.49632028312338367	-0.1514324700525001	2.0332099992345944	-0.5036272871002989	-0.18125847649587498	2.096191908824283	-0.5295882594509009	-0.16884159977569393	2.0305291127406178	-0.42732207652024523	-0.16924621874714543	1.9454636511034749	-0.38954122692968246	-0.1904828411567393	1.8698883507137714	-0.38336180949215926	-0.13091596085550708	2.0358873955076455	-0.5846942704897052	-0.12534232066341575	1.9543472442725034	-0.6051022178049054	-0.1408040549273893	1.8739473220233653	-0.6029484987085318
12	0.4	-0.15895689410598884	1.8692589490492986	-0.4917401026107444	-0.17051951916894661	1.8670919456544082	-0.43831743867167294	-0.16157089399608132	1.7274315193533372	-0.4103060191308557													-0.14543402768079966	1.8711769352519978	-0.5506176963889704	-0.13205926242762595	1.7270765661132137	-0.5340082263917512	-0.12707238906005286	1.588935528315464	-0.517565329952591	-0.16189843715348737	1.5547130447862714	-0.5501568478802001	-0.1464062432565098	1.5605014528919783	-0.5630243277153538	-0.1191696370319524	1.5768861647091728	-0.49842093520670677	-0.1494885034534192	2.0320754411203743	-0.5053607127068541	-0.18125863053839292	2.096182982006106	-0.5296182813967927	-0.16878577163832745	2.0305272478002454	-0.427361120833212	-0.1673526910128776	1.9455647651958574	-0.39171884573681093	-0.19055550147610495	1.871126107824298	-0.38355336710404886	-0.12893410377567113	2.035960720068203	-0.5869755224011547	-0.12604306138566881	1.954693002453074	-0.6079907252805921	-0.13887509573908396	1.8729998375980694	-0.6051282902200866
13	0.43333333333333335	-0.15881326633016624	1.8702457519517006	-0.4917328285407153	-0.1720955368204455	1.8693652856334393	-0.4362886371272277	-0.16130197254982662	1.7278469482077667	-0.41067305654686403													-0.14516178871779503	1.8732279765953048	-0.5507345868078738	-0.13211526373494942	1.7242221226400825	-0.5335617738941534	-0.12709169976299223	1.5888930945112092	-0.5175833468250027	-0.16363065445612066	1.5554861959249608	-0.5485894969132085	-0.1464272173999802	1.5602573423283086	-0.5630175504185253	-0.11930632055662464	1.5751873765231323	-0.4978949426077415	-0.1494911200997968	2.032063554509763	-0.505262994823991	-0.18125252095535205	2.0962363585065136	-0.5296361971555218	-0.1678563368991584	2.030346712416128	-0.42420958564127587	-0.16922586832083988	1.9466039707134375	-0.38989067200747235	-0.19050450142816377	1.8687162050280812	-0.38311928636504783	-0.12895440048539897	2.0360154036787304	-0.5869340965232492	-0.12598320730281592	1.9549154273766727	-0.6080330263843776	-0.14293357437500395	1.870939496070918	-0.600341783261545
14	0.4666666666666667	-0.15879562488171353	1.8680007548178612	-0.4914016530854445	-0.17033329976687187	1.8660912883743714	-0.4380052515814639	-0.16008439761281854	1.726774229088528	-0.4073143267309052													-0.14431265332686247	1.8709669768937987	-0.5472548160030541	-0.13185544479092579	1.7255378291320647	-0.5340557599405505	-0.126786826468187	1.589975608867995	-0.5182600705713817	-0.1617067523925602	1.5559490795442674	-0.5509072477859914	-0.14735616804296128	1.5604331452449367	-0.5663307026169272	-0.11903779303154421	1.5762510883306868	-0.4985401199426797	-0.14947641170383635	2.0320702400498227	-0.5052216455328294	-0.181249141501862	2.096228025655825	-0.5296309120415711	-0.16787827303374372	2.0303255011543895	-0.42417435078065086	-0.1691726250887981	1.9453368181342874	-0.3894409365303662	-0.19051881824776476	1.8680453276568487	-0.3832195389972284	-0.12892386714606588	2.0359268978756875	-0.5868947364251036	-0.12829230113584744	1.9523617729656322	-0.6055391092969581	-0.14223946954210706	1.871083330537089	-0.5971841584395386
15	0.5	-0.15891229605817886	1.8691322982894856	-0.49159390208345394	-0.1704556853017276	1.8671822640738263	-0.4382578680826978	-0.16227746041956673	1.7282510179977055	-0.41426325477040316													-0.144552896684369	1.870818013079385	-0.5471991474515162	-0.1319069584565055	1.7259019130845414	-0.5340027519955416	-0.12908938902501643	1.588935666465061	-0.515388880977632	-0.16365960674301464	1.5556027564520807	-0.5486567191715925	-0.14849958744406921	1.560290601283668	-0.5608616538215125	-0.11972880422073984	1.5773924538961457	-0.49763086511269916	-0.1486244450707536	2.033137309813661	-0.5026090965556068	-0.1812542090926954	2.0962321144426146	-0.5296204520104825	-0.1678408050359254	2.0303597461491405	-0.4241990488960516	-0.16925137121275616	1.9466273048402276	-0.3898157620705113	-0.19048259060859948	1.8708840616145064	-0.38359818287493325	-0.12895180541463733	2.0359266313966433	-0.5868402037784366	-0.12744536579463664	1.9531305098490923	-0.6028692751431903	-0.14214598965337194	1.8736336740962973	-0.5976106855698999
16	0.5333333333333333	-0.15881977362714858	1.87029213763829	-0.4918942345453643	-0.17036090291189906	1.868205719416316	-0.4385313453896501	-0.16129993083858662	1.7281654359940377	-0.41081758479890845													-0.1453198553190578	1.87214782047337	-0.5506791493117782	-0.1322443117918967	1.7307503351190967	-0.5382753282593008	-0.126847069684137	1.5902879741433895	-0.5182800195626432	-0.16162218334237372	1.555903527713751	-0.5508997797102332	-0.14733077008551146	1.560544936347412	-0.5662916357529549	-0.11895161145712616	1.5781259219313246	-0.4991268675542933	-0.1494611288238714	2.032084632243993	-0.5052838843003342	-0.18121994575802358	2.0962313141792337	-0.5296285368496438	-0.1678296150031566	2.030379992025269	-0.4242445700750075	-0.1690685640579617	1.9441764121462666	-0.3890255307924156	-0.19053912629201508	1.8684913356393098	-0.38324263140625364	-0.1289369278953171	2.03596052398939	-0.5869117720214658	-0.127474393549656	1.9538577811981936	-0.602792200549114	-0.1440939783598186	1.8732604064399188	-0.6037971557027065
17	0.5666666666666667	-0.15894052864402564	1.8689559602302617	-0.4917671149403365	-0.17048485193495494	1.8669105134222208	-0.4383931150710196	-0.1634236226934046	1.729450987737612	-0.4175757965071732													-0.14542463947023265	1.8707536650679144	-0.5505507615582957	-0.1349621742268203	1.7270952807002036	-0.5347895268101126	-0.12886352806624213	1.590269044905025	-0.5160672749800959	-0.16401958548113402	1.5546914304930768	-0.5481205631014299	-0.14738056679655673	1.5604865500537062	-0.5663011498010456	-0.11952419010645293	1.578789392113146	-0.498277177757789	-0.14857791207486434	2.031925377422787	-0.5021247775855047	-0.1812088375981102	2.096250498658375	-0.5296590754384515	-0.16790220925851645	2.0292053689369887	-0.4242178243963744	-0.16927947637135152	1.9442067618187802	-0.3893700792601069	-0.18865876173071752	1.8690470577302123	-0.3853458277635088	-0.12893740806581303	2.035935527063553	-0.5868923389211015	-0.12750823789335647	1.9533060700113702	-0.602954498338078	-0.14591543366144566	1.8767160233554323	-0.6022339650695827
18	0.6	-0.1568478270813801	1.8704025688641472	-0.49406103881505925	-0.17029345758970735	1.8683003491643564	-0.43851606472223387	-0.16124877316348477	1.728207649406639	-0.41080400060361155													-0.14522319811534765	1.8721694047255213	-0.5506978095822005	-0.13272002203647748	1.7281159582928216	-0.5374260286738416	-0.12968010772844515	1.5898422271517796	-0.5192642384250645	-0.16168896404595046	1.5560149437934814	-0.550922131939002	-0.14940182326188545	1.5603683436926905	-0.5641487124011887	-0.12036859127833925	1.5782668885833258	-0.5015037095638729	-0.1494323818297425	2.032084863501805	-0.5052863166446803	-0.1812118035203479	2.0962715463358452	-0.5296517451813516	-0.16782858674504142	2.0303906256363775	-0.42425680732584253	-0.16911639870582224	1.9454653533355128	-0.38948099598677505	-0.18843501297925583	1.8725990643741435	-0.38577653136493734	-0.12890553678720798	2.0359325963487964	-0.5869185920434444	-0.12615078906369154	1.9534308255056811	-0.608328765040409	-0.1424160390196256	1.8727346786544146	-0.6094665480086898
